<?xml version="1.0" encoding="utf-8"?>
<!-- Svg Vector Icons : http://www.onlinewebfonts.com/icon -->
<!DOCTYPE svg PUBLIC "-//W3C//DTD SVG 1.1//EN" "http://www.w3.org/Graphics/SVG/1.1/DTD/svg11.dtd">
<svg version="1.1" xmlns="http://www.w3.org/2000/svg" xmlns:xlink="http://www.w3.org/1999/xlink" x="0px" y="0px" viewBox="0 0 256 256" enable-background="new 0 0 256 256" xml:space="preserve">
<metadata> Svg Vector Icons : http://www.onlinewebfonts.com/icon </metadata>
<g><g><path fill="#000000" d="M241.2,47.7l-34.7-21.9c-4.8-3-11.1-1.6-14.1,3.2c-3,4.8-1.5,11.1,3.3,14.2l14.5,9.2l-44,10c-10.2-27.9-35.1-47.2-63.6-51c-4.5-0.8-9.2-1.3-13.9-1.3C45.2,10,10,45.2,10,88.6c0,40.1,30,73.1,68.7,77.9v20.3v9.8H59.1c-5.4,0-9.8,4.4-9.8,9.8c0,5.4,4.4,9.8,9.8,9.8h19.6V236v4.6l2.4,2.4c4,4,10.5,4,14.5,0l2.7-2.7V236v-19.7H118c5.4,0,9.8-4.4,9.8-9.8c0-5.4-4.4-9.8-9.8-9.8H98.4v-9.8v-19.5c3.9-0.3,7.8-0.8,11.7-1.7c39.1-8.9,64.5-45.4,60.5-84.3l43.7-9.9l-8.8,14.1c-3,4.8-1.5,11.1,3.3,14.2c4.8,3,11.1,1.6,14.1-3.2l21.6-34.7C247.4,57.1,246,50.8,241.2,47.7z M89.9,151.4c-34.2,0-62-27.7-62-62c0-34.2,27.7-62,62-62c34.2,0,62,27.7,62,62C151.9,123.7,124.1,151.4,89.9,151.4z"/></g></g>
</svg>